<?xml version="1.0" encoding="utf-8"?>
<!-- Generator: Adobe Illustrator 23.1.1, SVG Export Plug-In . SVG Version: 6.00 Build 0)  -->
<svg version="1.1" id="Capa_1" xmlns="http://www.w3.org/2000/svg" xmlns:xlink="http://www.w3.org/1999/xlink" x="0px" y="0px"
	 viewBox="0 0 22 22" style="enable-background:new 0 0 22 22;" xml:space="preserve">
<style type="text/css">
	.st0{fill:#040006;}
</style>
<path class="st0" d="M20.1,3.1c-1.2-1.2-2.9-1.9-4.6-1.9c-1.7,0-3.3,0.6-4.5,1.8C9.8,1.9,8.2,1.2,6.5,1.2c-1.7,0-3.4,0.7-4.6,1.9
	C0.7,4.4,0,6,0,7.7c0,1.7,0.7,3.4,1.9,4.6l8,8c0.3,0.3,0.7,0.4,1.1,0.4c0.4,0,0.8-0.2,1.1-0.4l8-8c1.2-1.2,1.9-2.9,1.9-4.6
	C22,6,21.3,4.4,20.1,3.1z M6.5,4.3c0.9,0,1.8,0.4,2.5,1l1,1c0.3,0.3,0.7,0.4,1.1,0.4c0,0,0,0,0,0c0.4,0,0.8-0.2,1.1-0.4l1-1
	c1.3-1.3,3.6-1.3,4.9,0c0.7,0.7,1,1.5,1,2.5c0,0.9-0.4,1.8-1,2.5L11,17.1l-6.9-6.9C3.4,9.5,3,8.7,3,7.7c0-0.9,0.4-1.8,1-2.5
	C4.7,4.6,5.6,4.3,6.5,4.3z"/>
</svg>
