<?xml version="1.0" encoding="utf-8"?>
<!-- Generator: Adobe Illustrator 23.1.1, SVG Export Plug-In . SVG Version: 6.00 Build 0)  -->
<svg version="1.1" id="Capa_1" xmlns="http://www.w3.org/2000/svg" xmlns:xlink="http://www.w3.org/1999/xlink" x="0px" y="0px"
	 viewBox="0 0 22 22" style="enable-background:new 0 0 22 22;" xml:space="preserve">
<style type="text/css">
	.st0{fill:#211915;}
</style>
<g>
	<g>
		<path class="st0" d="M11,22C4.9,22,0,17.1,0,11C0,4.9,4.9,0,11,0c6.1,0,11,4.9,11,11C22,17.1,17.1,22,11,22z M11,1.3
			c-5.3,0-9.7,4.3-9.7,9.7c0,5.3,4.3,9.7,9.7,9.7c5.3,0,9.7-4.3,9.7-9.7C20.7,5.7,16.3,1.3,11,1.3z"/>
	</g>
	<path class="st0" d="M16.7,4.8c-0.1-0.1-0.4-0.2-0.5-0.1L9.1,9c0,0,0,0,0,0C9,9,9,9,9,9c0,0-0.1,0.1-0.1,0.1c0,0,0,0,0,0l-3.7,7.6
		c-0.1,0.2,0,0.4,0.1,0.5c0.1,0.1,0.2,0.1,0.3,0.1c0.1,0,0.2,0,0.2-0.1l7.1-4.2c0,0,0,0,0,0c0,0,0,0,0.1-0.1c0,0,0.1-0.1,0.1-0.1
		c0,0,0,0,0,0l3.7-7.6C16.9,5.1,16.8,4.9,16.7,4.8z M12.6,11.9l-1-0.9L10,9.4l5.3-3.2L12.6,11.9z"/>
</g>
</svg>
